# xmcd CD database file
#
# Track frame offsets:
#	150
#	16417
#	50436
#	64684
#	107611
#	115334
#	139683
#	167238
#	177919
#	213284
#	250235
#	263355
#	275645
#
# Disc length: 3901 seconds
#
# Revision: 0
# Processed by: cddbd v1.5.1PL0 Copyright (c) Steve Scherf et al.
# Submitted via: CDex 1.51
#
DISCID=b50f3b0d
DTITLE=The Claudia Quintet - Semi-Formal
DYEAR=2005
DGENRE=Jazz
TTITLE0=Major Nelson
TTITLE1=Drewslate
TTITLE2=Kord
TTITLE3=They Point...Glance...Whisper...Then Snicker...
TTITLE4=Bindi Binder
TTITLE5=Susan
TTITLE6=Two Teachers
TTITLE7=Growth
TTITLE8=Limp Mint
TTITLE9=Guarana
TTITLE10=Where's My Mint? (Mint=President)
TTITLE11=Boy with a Bag and His Guardian Elephant
TTITLE12=Minor Nelson
EXTD=YEAR: 2005
EXTT0=
EXTT1=
EXTT2=
EXTT3=
EXTT4=
EXTT5=
EXTT6=
EXTT7=
EXTT8=
EXTT9=
EXTT10=
EXTT11=
EXTT12=
PLAYORDER=
